<svg width="25" height="30" xmlns="http://www.w3.org/2000/svg" xmlns:xlink="http://www.w3.org/1999/xlink"><defs><path id="a" d="M.09.147h22.665v28.53H.089z"/><path id="c" d="M0 .142h18.038V14.64H0z"/></defs><g fill="none" fill-rule="evenodd"><g transform="translate(2.206)"><mask id="b" fill="#fff"><use xlink:href="#a"/></mask><path d="M22.755 28.635l-4.088.037c-.33.034-.565-.12-.684-.498l-.962-2.527-1.35-3.518-.417-1.083c-.175-.43-.564-.675-1.172-.733-.632-.213-1.114-.589-1.283-1.3-.082-.46-.047-.938.062-1.43.003-.178-.095-.288-.297-.331-1.429-.066-2.77-.138-3.685-.245a11.699 11.699 0 0 1-2.327-.516 13.435 13.435 0 0 1-2.35-1.056c-1.077-.624-1.973-1.375-2.661-2.273a6.267 6.267 0 0 1-1.13-2.075C.134 10.196.028 9.32.124 8.464a8.784 8.784 0 0 1 .478-2.218l.79-1.95-.12 1.867c-.112 1.193.084 2.352.47 3.49.356 1.011 1.01 1.868 1.914 2.596a7.057 7.057 0 0 0 2.46 1.135l.81.184h.13l.152-.065c-1.001-.603-1.93-1.224-2.733-1.876-.833-.735-1.436-1.595-1.757-2.61a5.402 5.402 0 0 1-.215-2c.057-.646.165-1.242.35-1.767.193-.618.493-1.23.87-1.835a9.162 9.162 0 0 1 1.489-1.802A9.825 9.825 0 0 1 7.256.147c-1.43 1.623-2.4 3.288-2.728 5.011a4.66 4.66 0 0 0 .675 3.38c.503.734 1.205 1.369 2.082 1.918a8.625 8.625 0 0 0 1.867.899C7.972 10.319 7 9.19 6.337 7.925c-.43-1.109-.5-2.137-.187-3.078.26-.889.687-1.683 1.35-2.344.596-.635 1.225-1.175 1.895-1.591l1.178-.706C9.688 1.494 8.967 2.72 8.634 3.803c-.242 1.019-.117 2.014.316 2.987.363.805 1.013 1.464 1.896 2.006.913.523 3.145 1.41 3.145 1.41a14.013 14.013 0 0 1 3.45 2.172c1.521 1.257 2.305 2.64 2.093 4.191-.167 1.068-.903 2.04-2.025 2.946a.51.51 0 0 0-.216.443c.308.032.74-.31 1.193-.719.554-.512 1.018-1 1.392-1.467l.402-.525.044 8.354-.015.913c-.01.4.234.588.646.637.953.373 1.473.895 1.8 1.484" fill="#FFF" mask="url(#b)"/></g><g transform="translate(0 14.706)"><mask id="d" fill="#fff"><use xlink:href="#c"/></mask><path d="M17.985 10.903l.053-.129-1.129-3.149c-.202-.591-.181-.702-.74-.716-.991-.18-2.064-1.174-2.251-2.268v-.579c-1.493-.164-2.912-.397-4.229-.725-.748-.075-1.44.169-2.078.716C6.23 5.11 4.916 6.104 4.181 6.937c-1.14 1.21-1.71 2.489-1.75 4.026l-.087.711c-.45.162-.744.025-.78-.606-.155-1.301.015-2.446.529-3.425a9.522 9.522 0 0 1 2.212-2.7c.935-.764 2.024-1.505 3.207-2.23-.935-.547-1.762-1.099-2.4-1.662-.347-.312-.637-.617-.833-.91-.314.686-.15 1.343.465 1.975l.654.835c-1.188.654-2.224 1.433-3.081 2.36-.884.967-1.506 1.97-1.863 3.012C.09 9.33-.05 10.42.014 11.583L.14 12.62c.104.464.34.421 1.147.395H2.54l.009 1.625h12.04c-.68-.979-1.487-1.492-2.45-1.429l-4.007.079-.67-.007c-.198-.02-.403-.122-.61-.242l.388-.34.74-.44a3.996 3.996 0 0 0 1.633-1.483c.352-.609.429-1.322.187-2.156a5.143 5.143 0 0 0-.747-1.468l-.132-.227.007-.397.464.021.062.043c.466.439.802.951 1.03 1.525.261.796.3 1.58.091 2.347a9.271 9.271 0 0 1-.9 2.093l2.54-.496 5.769-1.16z" fill="#FFF" mask="url(#d)"/></g><g fill="#FFF"><path d="M14.855 8.144s.428-.843.69-1.718c.262-.875.061-2.96.061-2.96V0h.91v2.262h.91V0h.911v2.262h.455V0h1.366v2.262h.455V0h.455v2.262h.91V0h.83l.081.379v4.536s-.09.692-.567 1.404c-.478.712-1.011.985-1.011.985l.018-1.781s-.01-.294-.104-.517c-.093-.224-.21-.3-.21-.3s-.111-.103-.233-.103c-.115 0-.23.06-.23.06s-.254.108-.484.303c-.23.196-.4.438-.4.438s-.185.293-.251.53c-.066.238-.08.72-.08.72s.068.498.113.622l.239.65s-.281.1-.82.016a5.062 5.062 0 0 1-1.03-.29l-.375.029.113.233.051.079.061.056 2.051.586s.028.536.286.69c.258.153.843.022.843.022s.08.34.258.7c.178.357.5.497.5.497s.37.163.825.121c.454-.042.815-.26.815-.26s.286.377.46 1.075c.173.699.158 1.458.158 1.458l-.037.782-.024.833.061.838.047 1.155.16.335s.042.15-.014.35c-.057.2-.137.2-.137.2s-.2.05-.44-.103c-.239-.153-.37-.303-.37-.303s-.16-.2-.239-.377c-.079-.177-.14-.419-.14-.419l-.29-1.62s-.099-.559-.347-1.02c-.248-.46-.642-.936-.642-.936s-.44-.526-.979-.982c-.538-.456-1.063-.824-1.063-.824l-1.43-.927L16.364 9l-1.509-.855z"/><path d="M22.691 8.174s.272-.008.492.08c.257.102.609.581.609.581l.342.564s.117.28-.056.447c-.174.167-.469.158-.469.158l-.243.042s-.534.321-.933.321c-.398 0-.66-.204-.66-.204s-.23-.252-.328-.49c-.098-.237-.15-.59-.15-.59s-.046-.276-.046-.457.047-.35.047-.35.023-.12.172-.274c.15-.153.361-.26.361-.26l.162-.113.227-.158.717-.693s-.065.157-.033.372c.037.252.032.555-.005.675a.826.826 0 0 1-.206.35m-2.345-.351s-.12.004-.27-.122a.63.63 0 0 1-.19-.23s-.095-.207-.141-.385a2.82 2.82 0 0 1-.063-.419s-.004-.293.049-.524c.053-.23.116-.356.116-.356s.116-.223.21-.363c.096-.14.289-.283.289-.283l.414-.15.099.335-.018 1.63.018.403s-.004.24-.166.352c-.161.112-.347.112-.347.112m.449.464l-.228.091-.358.06s-.204.05-.204.28c0 .23.105.387.105.387s.092.115.334.094a.598.598 0 0 0 .376-.171c.051-.1.052-.23 0-.391l-.025-.35z"/></g></g></svg>